<?xml version="1.0" standalone="no"?>
<!DOCTYPE svg PUBLIC "-//W3C//DTD SVG 20010904//EN"
 "http://www.w3.org/TR/2001/REC-SVG-20010904/DTD/svg10.dtd">
<svg version="1.0" xmlns="http://www.w3.org/2000/svg"
 width="1200.000000pt" height="1200.000000pt" viewBox="0 0 1200.000000 1200.000000"
 preserveAspectRatio="xMidYMid meet">
<metadata>
Created by potrace 1.11, written by Peter Selinger 2001-2013
</metadata>
<g transform="translate(0.000000,1200.000000) scale(0.100000,-0.100000)"
fill="#000000" stroke="none">
<path d="M5158 10755 c-3 -3 -45 -12 -94 -21 -208 -35 -550 -180 -764 -322
-135 -90 -304 -235 -404 -348 -348 -395 -609 -895 -729 -1399 -160 -670 -307
-1455 -307 -1636 0 -21 -4 -41 -10 -44 -13 -8 -14 -534 -1 -568 5 -13 17 -77
26 -141 23 -167 75 -339 145 -481 71 -144 135 -231 252 -346 l88 -87 -15 -133
c-38 -353 -57 -663 -51 -838 11 -307 54 -843 117 -1441 16 -157 34 -328 39
-380 22 -214 91 -795 95 -798 7 -8 64 90 94 163 52 124 93 310 130 590 6 49 8
-45 7 -315 -3 -428 3 -378 -87 -738 -22 -90 -38 -166 -35 -169 10 -11 89 18
138 49 26 16 61 49 78 71 35 48 70 150 71 211 0 22 3 35 6 28 3 -8 33 -183 67
-390 l62 -377 27 29 c51 55 62 117 62 351 0 116 -6 250 -13 299 -7 48 -11 90
-9 92 2 3 18 -25 36 -60 73 -149 102 -363 82 -614 -6 -86 -14 -173 -17 -192
l-5 -35 20 25 c33 40 82 168 100 257 9 46 19 83 24 83 24 0 -9 -276 -48 -399
-13 -41 -23 -77 -21 -78 7 -7 113 79 180 145 186 183 281 396 315 702 6 54 26
144 46 206 36 115 121 333 135 347 4 5 11 -17 15 -48 18 -150 95 -331 188
-444 127 -156 326 -261 577 -305 134 -23 231 -28 347 -16 307 31 532 134 717
330 159 169 193 282 140 472 -18 63 -68 129 -117 155 -17 9 -54 16 -82 16
-178 -1 -285 -186 -203 -353 16 -32 39 -62 57 -73 35 -21 100 -22 127 -3 23
18 14 29 -37 45 -55 18 -100 70 -106 125 -7 62 2 90 43 136 107 118 261 36
280 -149 13 -125 -43 -243 -140 -293 -57 -30 -165 -30 -221 -1 -58 31 -120 99
-152 168 -91 198 11 630 231 979 31 49 115 173 186 276 310 448 425 655 546
990 29 80 71 193 93 251 154 407 107 832 -137 1237 -182 302 -385 521 -797
860 -104 86 -238 203 -296 260 l-107 102 -1 99 -1 99 45 50 c63 70 117 94 229
102 l91 7 -81 1 c-107 2 -171 -19 -235 -76 -37 -33 -49 -39 -49 -26 0 9 6 25
14 33 7 9 51 72 97 141 251 377 457 788 561 1122 30 98 35 107 54 102 36 -9
36 13 2 41 -34 28 -33 28 52 -5 54 -21 130 -34 130 -22 0 5 -12 15 -27 23 -27
13 -24 14 57 19 l85 5 -40 14 c-58 20 -61 23 -31 38 36 19 33 31 -11 35 -29 2
-38 7 -37 21 1 9 -5 17 -12 17 -11 0 -12 5 -5 18 21 40 41 177 41 288 0 65 2
115 5 113 2 -3 10 -72 18 -154 8 -84 22 -167 31 -189 9 -21 16 -49 16 -62 0
-13 4 -23 8 -22 5 2 35 -29 68 -69 32 -40 107 -124 167 -188 122 -133 128
-147 74 -211 -84 -99 -107 -135 -107 -172 0 -20 5 -44 11 -52 8 -12 9 -10 4 8
-11 37 13 88 76 163 66 79 79 111 58 145 -8 12 -71 84 -141 159 -70 75 -144
162 -164 192 l-37 56 18 131 c23 175 31 454 15 586 -25 221 -107 454 -202 580
-19 25 -54 83 -79 129 -125 236 -330 404 -642 526 -145 57 -382 117 -542 139
-66 9 -142 21 -168 26 -50 10 -390 14 -399 5z m1903 -1264 c49 -132 80 -379
78 -641 -1 -188 -11 -174 -29 40 -15 185 -37 347 -61 460 -39 183 -46 220 -40
225 9 9 29 -24 52 -84z m-102 -349 c1 -7 -3 -10 -9 -7 -5 3 -10 21 -9 38 1 31
1 31 9 7 4 -14 8 -31 9 -38z m30 -219 c5 -65 6 -149 2 -188 l-7 -70 -7 50 c-4
28 -14 64 -22 80 -14 28 -15 26 -9 -46 6 -89 -1 -126 -28 -140 -11 -6 -21 -9
-23 -7 -2 2 5 53 16 113 10 61 22 162 25 225 7 116 20 162 36 121 4 -11 11
-73 17 -138z m-329 -278 c0 -8 -4 -15 -10 -15 -5 0 -7 7 -4 15 4 8 8 15 10 15
2 0 4 -7 4 -15z m-6 -31 c24 -9 19 -24 -9 -24 -18 0 -23 4 -19 15 7 17 7 17
28 9z m-14 -82 l23 -19 -16 -90 c-30 -164 -100 -380 -200 -618 -55 -131 -287
-599 -293 -592 -7 7 35 233 67 359 62 246 167 535 296 813 85 182 83 179 123
147z m-2493 -119 c-2 -16 -4 -5 -4 22 0 28 2 40 4 28 2 -13 2 -35 0 -50z
m-890 -55 c-3 -8 -6 -5 -6 6 -1 11 2 17 5 13 3 -3 4 -12 1 -19z m43 -43 c0 -8
-6 -15 -14 -15 -48 0 -61 -76 -21 -116 14 -14 25 -35 25 -46 0 -21 -2 -20 -31
8 -26 24 -31 25 -26 9 32 -106 32 -100 9 -143 -21 -41 -21 -51 -23 -564 -1
-613 -2 -524 4 -628 l5 -85 -13 79 c-56 323 -51 980 11 1400 8 55 20 103 27
108 20 13 47 9 47 -7z m875 -373 c4 -65 12 -108 21 -117 18 -17 18 -36 1 -29
-10 4 -9 -37 5 -203 9 -115 20 -253 23 -308 4 -55 10 -129 15 -165 5 -36 9
-78 9 -95 -2 -42 -25 120 -44 305 -26 256 -44 540 -49 748 -4 153 -3 171 3 82
5 -63 11 -161 16 -218z m2 201 c-3 -10 -5 -4 -5 12 0 17 2 24 5 18 2 -7 2 -21
0 -30z m1283 -183 c-21 -41 -18 -53 7 -22 12 15 12 14 2 -10 -7 -15 -16 -25
-22 -21 -6 3 -7 1 -3 -5 3 -6 -3 -39 -14 -72 -11 -34 -26 -97 -32 -142 -13
-93 0 -202 38 -307 12 -35 20 -69 18 -76 -3 -7 4 -31 16 -54 11 -23 18 -41 15
-41 -12 0 -88 170 -107 239 -25 97 -27 233 -4 321 16 63 89 230 101 230 3 0
-4 -18 -15 -40z m-2394 -262 c-4 -29 -7 -111 -8 -183 l-1 -130 -6 105 c-13
235 -21 -8 -21 -624 0 -346 -2 -631 -4 -634 -3 -2 -1 -12 4 -21 5 -10 5 -23 0
-30 -6 -10 -12 -9 -29 8 -40 40 -55 179 -55 506 -1 314 9 424 65 749 16 94 34
201 40 239 14 79 24 90 15 15z m1729 2 c-17 -33 -19 -44 -6 -36 5 3 -5 -29
-21 -71 -42 -109 -58 -192 -58 -313 0 -128 23 -230 79 -355 22 -49 35 -82 28
-71 -7 10 -20 28 -31 40 -18 21 -18 20 -1 -9 10 -16 31 -43 47 -58 25 -23 28
-30 17 -43 -10 -13 -15 -11 -31 13 -22 33 -62 116 -88 188 -43 114 -54 178
-54 305 0 159 21 244 102 398 12 23 25 42 27 42 3 0 -1 -13 -10 -30z m25 0
c-6 -11 -13 -20 -16 -20 -2 0 0 9 6 20 6 11 13 20 16 20 2 0 0 -9 -6 -20z
m436 -405 c31 -49 82 -122 114 -161 33 -39 56 -75 52 -79 -4 -5 -2 -5 4 -2 6
3 33 -17 60 -46 l49 -51 -47 42 c-26 23 -50 42 -54 42 -8 0 -43 -43 -44 -53 0
-5 14 -28 30 -53 17 -24 28 -44 25 -44 -12 0 -138 203 -174 282 -48 102 -107
269 -80 228 5 -8 34 -55 65 -105z m-2198 -77 c-2 -151 -2 -151 -7 -48 -6 102
-3 200 5 200 2 0 3 -69 2 -152z m9 -250 c-2 -13 -4 -5 -4 17 -1 22 1 32 4 23
2 -10 2 -28 0 -40z m1190 -25 c-3 -10 -5 -2 -5 17 0 19 2 27 5 18 2 -10 2 -26
0 -35z m-1180 -70 c-3 -10 -5 -4 -5 12 0 17 2 24 5 18 2 -7 2 -21 0 -30z
m1190 5 c-3 -7 -5 -2 -5 12 0 14 2 19 5 13 2 -7 2 -19 0 -25z m-1180 -80 c-3
-8 -6 -5 -6 6 -1 11 2 17 5 13 3 -3 4 -12 1 -19z m10 -60 c-3 -8 -6 -5 -6 6
-1 11 2 17 5 13 3 -3 4 -12 1 -19z m140 -40 c-3 -7 -5 -2 -5 12 0 14 2 19 5
13 2 -7 2 -19 0 -25z m10 -50 c-3 -8 -6 -5 -6 6 -1 11 2 17 5 13 3 -3 4 -12 1
-19z m2479 -199 c41 -34 74 -64 74 -66 0 -2 -12 5 -27 16 -37 30 -42 17 -7
-22 16 -17 3 -7 -29 23 -58 55 -104 110 -92 110 4 0 40 -28 81 -61z m-2696
-359 c0 -20 9 -63 20 -95 11 -32 18 -60 16 -63 -4 -4 -57 154 -71 213 l-7 30
21 -24 c13 -15 21 -38 21 -61z m3679 -744 c-3 -3 -11 5 -18 17 -13 21 -12 21
5 5 10 -10 16 -20 13 -22z m-2992 -508 c-3 -8 -6 -5 -6 6 -1 11 2 17 5 13 3
-3 4 -12 1 -19z m-10 -50 c-3 -8 -6 -5 -6 6 -1 11 2 17 5 13 3 -3 4 -12 1 -19z
m-10 -60 c-3 -7 -5 -2 -5 12 0 14 2 19 5 13 2 -7 2 -19 0 -25z m-10 -55 c-3
-10 -5 -4 -5 12 0 17 2 24 5 18 2 -7 2 -21 0 -30z m-15 -101 c-6 -25 -6 -44
-1 -48 5 -3 9 -13 8 -22 0 -14 -2 -13 -9 3 -5 11 -9 15 -9 10 -1 -6 -8 -60
-16 -120 -19 -145 -20 -157 -50 -390 -14 -110 -33 -249 -41 -310 -9 -60 -22
-171 -30 -245 l-13 -135 5 110 c10 221 57 617 121 1005 21 124 39 216 41 204
1 -11 -1 -39 -6 -62z m-5 -144 c-3 -8 -6 -5 -6 6 -1 11 2 17 5 13 3 -3 4 -12
1 -19z m-10 -80 c-3 -7 -5 -2 -5 12 0 14 2 19 5 13 2 -7 2 -19 0 -25z m117
-453 c8 -116 19 -1101 13 -1095 -5 5 -13 331 -21 905 -5 294 -2 350 8 190z
m-267 -682 c-2 -16 -4 -5 -4 22 0 28 2 40 4 28 2 -13 2 -35 0 -50z m5 -327
c-9 -18 -11 -16 -11 19 0 33 1 37 10 21 8 -12 8 -25 1 -40z"/>
<path d="M7390 7840 c0 -5 5 -10 11 -10 5 0 7 5 4 10 -3 6 -8 10 -11 10 -2 0
-4 -4 -4 -10z"/>
<path d="M7075 7671 c-14 -24 9 -32 96 -29 66 2 90 6 94 17 8 22 0 24 -40 11
-36 -12 -91 -10 -126 5 -10 3 -20 2 -24 -4z"/>
<path d="M7270 7560 c11 -11 23 -20 27 -20 3 0 -2 9 -12 20 -10 11 -22 20 -27
20 -4 0 1 -9 12 -20z"/>
<path d="M7290 7476 c-12 -36 -3 -92 25 -158 20 -49 19 -151 -1 -194 -31 -65
-90 -91 -229 -104 l-80 -7 70 -2 c77 -1 170 19 211 45 64 43 82 154 42 266
-14 38 -22 88 -23 126 0 34 -1 62 -2 62 -1 0 -6 -15 -13 -34z"/>
<path d="M6528 7113 c6 -2 18 -2 25 0 6 3 1 5 -13 5 -14 0 -19 -2 -12 -5z"/>
<path d="M6588 7103 c7 -3 16 -2 19 1 4 3 -2 6 -13 5 -11 0 -14 -3 -6 -6z"/>
<path d="M6898 7033 c7 -3 16 -2 19 1 4 3 -2 6 -13 5 -11 0 -14 -3 -6 -6z"/>
<path d="M6953 7023 c9 -2 23 -2 30 0 6 3 -1 5 -18 5 -16 0 -22 -2 -12 -5z"/>
<path d="M7030 780 c0 -31 -11 -36 -64 -30 -10 1 -22 -4 -26 -10 -6 -10 -15
-8 -38 5 -38 23 -72 15 -120 -30 -34 -31 -37 -38 -36 -86 0 -47 4 -55 37 -85
30 -28 45 -34 80 -34 24 0 48 5 55 12 15 15 16 3 2 -23 -15 -27 -80 -26 -105
1 -21 23 -55 27 -55 6 0 -7 9 -25 21 -40 18 -23 27 -26 83 -26 56 0 65 3 91
30 28 29 30 37 33 129 4 85 7 99 21 96 12 -1 16 -14 17 -56 2 -92 3 -96 31
-114 21 -14 30 -15 45 -6 11 7 18 7 18 1 0 -5 9 -10 20 -10 18 0 20 7 20 85 0
81 1 86 25 97 16 7 25 19 25 34 0 22 -25 40 -34 25 -4 -7 -31 -7 -93 -2 -7 1
-13 14 -13 31 0 23 -4 30 -20 30 -16 0 -20 -7 -20 -30z m-126 -91 c31 -24 36
-81 9 -111 -23 -26 -89 -25 -103 3 -21 38 -15 81 14 106 33 28 46 29 80 2z
m206 -60 c0 -62 -2 -70 -17 -67 -27 5 -32 124 -6 131 10 3 19 5 21 6 1 0 2
-31 2 -70z"/>
<path d="M6360 745 c-17 -9 -27 -10 -31 -3 -4 6 -14 8 -23 5 -14 -6 -16 -25
-14 -154 3 -131 5 -148 21 -151 14 -3 17 4 17 44 0 37 3 45 12 36 17 -17 95
-15 124 4 76 51 70 165 -11 213 -42 24 -60 26 -95 6z m69 -50 c31 -16 41 -33
41 -73 0 -38 -27 -62 -71 -62 -68 0 -94 78 -43 125 31 29 36 30 73 10z"/>
<path d="M6616 753 c-4 -4 -24 -7 -44 -8 l-37 0 0 -115 c0 -112 1 -115 23
-118 21 -3 22 -1 22 77 0 70 3 83 22 101 25 23 36 24 60 6 13 -10 18 -32 20
-97 3 -78 4 -84 26 -87 21 -3 22 -1 22 90 0 100 -4 112 -52 141 -29 18 -50 21
-62 10z"/>
<path d="M7262 737 c-61 -40 -80 -114 -43 -170 31 -48 61 -61 129 -58 27 1 82
52 82 75 0 22 -33 20 -55 -4 -24 -26 -86 -27 -108 -2 -10 10 -17 21 -17 25 0
3 42 7 94 9 l94 3 22 -41 c28 -54 57 -69 129 -65 27 1 96 66 86 81 -10 16 -41
11 -60 -10 -24 -26 -86 -27 -108 -2 -10 10 -17 22 -17 25 0 4 43 7 95 7 l95 0
0 34 c0 54 -64 116 -120 116 -32 0 -97 -46 -104 -74 -7 -30 -26 -35 -26 -8 0
20 -31 52 -67 71 -32 16 -64 13 -101 -12z m93 -43 c14 -9 25 -20 25 -24 0 -5
-29 -10 -65 -12 -36 -1 -65 0 -65 4 0 11 51 48 67 48 7 0 25 -7 38 -16z m253
-4 c12 -12 22 -24 22 -28 0 -4 -33 -5 -72 -4 l-73 4 30 24 c37 29 64 30 93 4z"/>
<path d="M4420 712 c0 -5 -9 -51 -20 -102 -11 -51 -20 -97 -20 -102 0 -11 103
-10 134 2 60 23 87 131 45 184 -18 23 -28 26 -80 26 -32 0 -59 -4 -59 -8z
m109 -45 c18 -15 8 -85 -17 -109 -21 -21 -82 -31 -82 -14 0 6 5 31 10 56 21
97 18 91 48 84 15 -4 33 -12 41 -17z"/>
<path d="M4990 701 c0 -24 34 -22 38 2 2 12 -3 17 -17 17 -14 0 -21 -6 -21
-19z"/>
<path d="M5705 679 c-5 -30 -10 -38 -18 -30 -21 21 -74 13 -96 -15 -47 -60
-15 -156 46 -139 15 5 38 7 50 6 16 -2 24 4 28 21 2 13 13 62 23 111 l19 87
-23 0 c-18 0 -23 -7 -29 -41z m-30 -93 c0 -42 -20 -64 -49 -53 -36 14 -11 101
27 95 18 -2 22 -10 22 -42z"/>
<path d="M5877 713 c-5 -8 -33 -136 -41 -186 -4 -25 -2 -27 27 -26 18 0 42 -2
54 -6 35 -11 83 42 83 92 0 55 -19 77 -59 71 -32 -5 -33 -4 -26 29 5 28 3 33
-14 33 -11 0 -22 -3 -24 -7z m80 -99 c3 -8 1 -29 -4 -47 -7 -25 -14 -32 -33
-32 -18 0 -26 6 -28 23 -7 47 49 96 65 56z"/>
<path d="M4631 634 c-25 -32 -28 -96 -6 -118 24 -23 54 -29 86 -16 45 19 38
41 -12 38 -26 -2 -43 2 -46 9 -3 8 13 13 49 15 47 3 53 6 56 26 2 13 -4 34
-12 48 -24 35 -87 34 -115 -2z m82 -18 c8 -19 -1 -26 -35 -26 -26 0 -28 2 -18
20 12 23 45 27 53 6z"/>
<path d="M4808 649 c-10 -5 -18 -21 -18 -35 0 -20 9 -29 45 -45 25 -11 45 -24
45 -28 0 -16 -27 -20 -52 -7 -45 24 -80 7 -45 -22 41 -34 122 -19 133 24 8 30
-9 52 -49 62 -39 10 -48 32 -13 32 13 0 27 -4 30 -9 3 -5 15 -7 26 -4 16 4 18
9 9 24 -11 21 -80 26 -111 8z"/>
<path d="M4975 648 c-2 -7 -10 -43 -18 -80 -15 -68 -15 -68 7 -68 20 0 24 8
36 68 7 37 15 73 18 80 2 7 -4 12 -17 12 -12 0 -23 -6 -26 -12z"/>
<path d="M5051 641 c-29 -29 -37 -85 -16 -117 14 -22 22 -25 51 -21 37 6 47
-10 19 -33 -11 -9 -22 -9 -49 1 -45 16 -59 4 -26 -23 19 -15 34 -19 64 -15 21
3 43 10 49 16 6 6 20 54 32 108 22 97 22 98 2 101 -11 2 -23 -2 -27 -8 -5 -9
-9 -9 -14 -1 -11 18 -64 13 -85 -8z m82 -32 c14 -22 -12 -74 -38 -74 -15 0
-21 8 -23 33 -5 54 35 82 61 41z"/>
<path d="M5219 580 l-16 -80 22 0 c19 0 24 7 29 43 8 49 30 87 51 87 22 0 24
-12 10 -73 -13 -56 -13 -57 9 -57 19 0 24 8 35 65 7 36 11 72 7 80 -7 18 -57
20 -74 3 -9 -9 -12 -9 -12 0 0 7 -10 12 -22 12 -21 0 -25 -8 -39 -80z"/>
<path d="M5422 638 c-64 -70 -6 -175 75 -136 15 7 28 19 31 26 4 14 -26 16
-47 3 -20 -13 -41 -2 -41 20 0 16 8 19 56 19 l57 0 -7 32 c-9 45 -24 58 -65
58 -26 0 -44 -7 -59 -22z m76 -31 c3 -13 -3 -17 -27 -17 -33 0 -39 8 -19 28
17 17 42 11 46 -11z"/>
<path d="M6035 633 c25 -147 26 -134 -7 -165 -25 -24 -27 -29 -13 -34 33 -13
62 15 122 120 59 102 60 106 37 106 -19 0 -30 -11 -51 -55 -15 -30 -31 -55
-35 -55 -4 0 -8 18 -8 39 0 52 -8 71 -31 71 -15 0 -18 -6 -14 -27z"/>
</g>
</svg>
